<svg version="1.1" id="Lager_1" xmlns="http://www.w3.org/2000/svg" xmlns:xlink="http://www.w3.org/1999/xlink" x="0px" y="0px"
	 viewBox="0 0 595.3 595.3" style="enable-background:new 0 0 595.3 595.3;" xml:space="preserve" shape-rendering="geometricPrecision" >
<style type="text/css">
	.st0{fill:#FFFFFF;}
</style>
<circle class="st0" cx="297.6" cy="298.2" r="297.6"/>
<g id="icon_2_">
	<path d="M297.6,0C462,0,595.3,133.3,595.3,297.6c0,164.4-133.3,297.7-297.6,297.7C133.3,595.3,0,462,0,297.6
		C0,133.3,133.3,0,297.6,0z"/>
	<path class="st0" d="M426.9,201.3c0,0-36.8-28.8-80.3-32.1l-3.9,7.8c39.3,9.6,57.4,23.4,76.2,40.4c-32.5-16.6-64.6-32.1-120.5-32.1
		s-88,15.5-120.5,32.1c18.8-16.9,40.3-32.2,76.2-40.4l-3.9-7.8c-45.7,4.3-80.3,32.1-80.3,32.1S128.7,261,121.6,378
		c41.5,47.8,104.4,48.2,104.4,48.2l13.2-17.5c-22.4-7.8-47.6-21.7-69.4-46.7c26,19.7,65.3,40.2,128.5,40.2s102.5-20.5,128.5-40.2
		c-21.8,25-47.1,38.9-69.4,46.7l13.2,17.5c0,0,62.9-0.4,104.4-48.2C468,261,426.9,201.3,426.9,201.3z M246.1,345.9
		c-15.5,0-28.1-14.4-28.1-32.1c0-17.7,12.6-32.1,28.1-32.1c15.5,0,28.1,14.4,28.1,32.1C274.2,331.5,261.6,345.9,246.1,345.9z
		 M350.5,345.9c-15.5,0-28.1-14.4-28.1-32.1c0-17.7,12.6-32.1,28.1-32.1c15.5,0,28.1,14.4,28.1,32.1
		C378.7,331.5,366,345.9,350.5,345.9z"/>
</g>
</svg>
