<svg version="1.1" id="Lager_1" xmlns="http://www.w3.org/2000/svg" xmlns:xlink="http://www.w3.org/1999/xlink" x="0px" y="0px"
	 viewBox="0 0 489.9 483.7" style="enable-background:new 0 0 489.9 483.7;" xml:space="preserve" shape-rendering="geometricPrecision" >
<style type="text/css">
	.st0{fill:#FFFFFF;}
</style>
<ellipse class="st0" cx="244.9" cy="241.5" rx="244.9" ry="241.5"/>
<path d="M244.9,0C109.7,0,0,108.3,0,241.8C0,356,80.2,451.7,188,477c-5.6-1.3-11.1-2.8-16.5-4.5v-55.4c0,0-9.2,3-21.4,3
	c-34.3,0-48.5-30.2-52-45.3c-2.2-9.2-7.8-18-13.8-23.3c-7.2-6.4-10.6-6.4-10.7-8.6c-0.1-4.6,6.2-4.4,9.2-4.4
	c15.3,0,26.9,16.1,32.3,24.4c13.3,20.5,27.7,24,35.1,24c9.2,0,17.1-1.4,22.6-4c2.5-17.6,10.4-33.2,23.3-44.4
	c-57.4-11.3-98-43.9-98-96.7c0-27.2,11.1-52.3,29.5-72.5c-1.9-5.3-5-15.9-5-33.3c0-11.5,0.8-25.6,6.1-39.3c0,0,34.9,0.2,67.9,31
	c15.2-4.4,31.5-6.9,48.5-6.9s33.3,2.5,48.5,6.9c32.9-30.8,67.9-31,67.9-31c5.3,13.7,6.1,27.8,6.1,39.3c0,18.7-2.5,29.7-4.1,34.4
	c17.9,20,28.6,44.7,28.6,71.4c0,52.9-40.5,85.4-98,96.7c15.3,13.3,24.5,32.7,24.5,54.4v79.6c-5.4,1.7-10.9,3.1-16.5,4.5
	c107.8-25.4,188-121,188-235.2C489.9,108.3,380.2,0,244.9,0z M262,483c-5.6,0.4-11.3,0.7-17.1,0.7C250.7,483.7,256.4,483.4,262,483z
	 M299.4,477.6c-11,2.5-22.2,4.2-33.7,5.2C277.2,481.8,288.5,480,299.4,477.6z M244.9,483.7c-5.7,0-11.4-0.3-17.1-0.7
	C233.5,483.4,239.2,483.7,244.9,483.7z M224.1,482.7c-11.5-1-22.7-2.7-33.7-5.2C201.4,480,212.6,481.8,224.1,482.7z"/>
</svg>
