<svg version="1.1" id="Lager_1" xmlns="http://www.w3.org/2000/svg" xmlns:xlink="http://www.w3.org/1999/xlink" x="0px" y="0px"
	 viewBox="0 0 547.7 547.7" style="enable-background:new 0 0 547.7 547.7;" xml:space="preserve" shape-rendering="geometricPrecision" >
<style type="text/css">
	.st0{fill:#FFFFFF;}
</style>
<circle class="st0" cx="273.8" cy="273.8" r="273.8"/>
<path d="M273.8,0C122.8,0,0,122.8,0,273.8s122.8,273.8,273.8,273.8s273.8-122.8,273.8-273.8S424.8,0,273.8,0z M407.6,220.5
	c0.1,2.8,0.2,5.7,0.2,8.5c0,87.1-66.3,187.6-187.7,187.6c-37.2,0-71.9-10.9-101.1-29.6c5.2,0.6,10.4,0.9,15.7,0.9
	c30.9,0,59.3-10.5,81.9-28.2c-28.9-0.5-53.2-19.6-61.6-45.8c4,0.8,8.2,1.2,12.4,1.2c6,0,11.8-0.8,17.4-2.3
	c-30.1-6.1-52.9-32.7-52.9-64.7c0-0.3,0-0.6,0-0.8c8.9,4.9,19,7.9,29.9,8.3c-17.7-11.8-29.3-32-29.3-54.9c0-12.1,3.2-23.4,8.9-33.2
	c32.5,39.9,81.1,66.1,135.9,68.9c-1.1-4.8-1.7-9.9-1.7-15c0-36.4,29.5-65.9,66-65.9c19,0,36.1,8,48.1,20.8c15-3,29.1-8.4,41.9-16
	c-4.9,15.4-15.4,28.3-29,36.5c13.4-1.6,26-5.1,37.9-10.4C431.7,199.6,420.5,211.2,407.6,220.5z"/>
</svg>
